<mxfile host="app.diagrams.net" modified="2023-10-16T20:15:47.280Z" agent="Mozilla/5.0 (Windows NT 10.0; Win64; x64) AppleWebKit/537.36 (KHTML, like Gecko) Chrome/116.0.5845.967 YaBrowser/23.9.1.967 Yowser/2.5 Safari/537.36" etag="UhsMxkbrHlAJGan5DvY-" version="22.0.4" type="github">
  <diagram name="Страница — 1" id="_Fud2aackXT3aicDMZtj">
    <mxGraphModel dx="1514" dy="849" grid="1" gridSize="10" guides="1" tooltips="1" connect="1" arrows="1" fold="1" page="1" pageScale="1" pageWidth="827" pageHeight="1169" math="0" shadow="0">
      <root>
        <mxCell id="0" />
        <mxCell id="1" parent="0" />
        <mxCell id="zBoWYeOD6eB_H1M0TIGS-51" style="edgeStyle=orthogonalEdgeStyle;rounded=0;orthogonalLoop=1;jettySize=auto;html=1;entryX=0.5;entryY=0;entryDx=0;entryDy=0;" parent="1" source="zBoWYeOD6eB_H1M0TIGS-2" target="zBoWYeOD6eB_H1M0TIGS-5" edge="1">
          <mxGeometry relative="1" as="geometry" />
        </mxCell>
        <mxCell id="zBoWYeOD6eB_H1M0TIGS-2" value="start&lt;br&gt;" style="ellipse;whiteSpace=wrap;html=1;" parent="1" vertex="1">
          <mxGeometry x="349" y="20" width="120" height="80" as="geometry" />
        </mxCell>
        <mxCell id="zBoWYeOD6eB_H1M0TIGS-5" value="a,b,c,d ,min1,min2,min" style="rounded=0;whiteSpace=wrap;html=1;" parent="1" vertex="1">
          <mxGeometry x="344" y="130" width="130" height="70" as="geometry" />
        </mxCell>
        <mxCell id="zBoWYeOD6eB_H1M0TIGS-17" value="" style="edgeStyle=orthogonalEdgeStyle;rounded=0;orthogonalLoop=1;jettySize=auto;html=1;" parent="1" source="zBoWYeOD6eB_H1M0TIGS-7" target="zBoWYeOD6eB_H1M0TIGS-11" edge="1">
          <mxGeometry relative="1" as="geometry" />
        </mxCell>
        <mxCell id="zBoWYeOD6eB_H1M0TIGS-18" value="" style="edgeStyle=orthogonalEdgeStyle;rounded=0;orthogonalLoop=1;jettySize=auto;html=1;" parent="1" source="zBoWYeOD6eB_H1M0TIGS-7" target="zBoWYeOD6eB_H1M0TIGS-10" edge="1">
          <mxGeometry relative="1" as="geometry" />
        </mxCell>
        <mxCell id="zBoWYeOD6eB_H1M0TIGS-7" value="a&amp;gt;b?" style="rhombus;whiteSpace=wrap;html=1;" parent="1" vertex="1">
          <mxGeometry x="359" y="330" width="100" height="80" as="geometry" />
        </mxCell>
        <mxCell id="zBoWYeOD6eB_H1M0TIGS-25" value="" style="edgeStyle=orthogonalEdgeStyle;rounded=0;orthogonalLoop=1;jettySize=auto;html=1;" parent="1" source="zBoWYeOD6eB_H1M0TIGS-9" target="zBoWYeOD6eB_H1M0TIGS-7" edge="1">
          <mxGeometry relative="1" as="geometry" />
        </mxCell>
        <mxCell id="zBoWYeOD6eB_H1M0TIGS-9" value="a,b,c,d" style="shape=parallelogram;perimeter=parallelogramPerimeter;whiteSpace=wrap;html=1;fixedSize=1;" parent="1" vertex="1">
          <mxGeometry x="349" y="240" width="120" height="60" as="geometry" />
        </mxCell>
        <mxCell id="zBoWYeOD6eB_H1M0TIGS-53" style="edgeStyle=orthogonalEdgeStyle;rounded=0;orthogonalLoop=1;jettySize=auto;html=1;entryX=0;entryY=0;entryDx=0;entryDy=0;" parent="1" source="zBoWYeOD6eB_H1M0TIGS-10" target="zBoWYeOD6eB_H1M0TIGS-19" edge="1">
          <mxGeometry relative="1" as="geometry">
            <Array as="points">
              <mxPoint x="210" y="410" />
              <mxPoint x="320" y="410" />
              <mxPoint x="320" y="480" />
            </Array>
          </mxGeometry>
        </mxCell>
        <mxCell id="zBoWYeOD6eB_H1M0TIGS-10" value="min1=a" style="rounded=0;whiteSpace=wrap;html=1;" parent="1" vertex="1">
          <mxGeometry x="150" y="340" width="120" height="60" as="geometry" />
        </mxCell>
        <mxCell id="zBoWYeOD6eB_H1M0TIGS-54" style="edgeStyle=orthogonalEdgeStyle;rounded=0;orthogonalLoop=1;jettySize=auto;html=1;entryX=1;entryY=0;entryDx=0;entryDy=0;" parent="1" source="zBoWYeOD6eB_H1M0TIGS-11" target="zBoWYeOD6eB_H1M0TIGS-19" edge="1">
          <mxGeometry relative="1" as="geometry">
            <Array as="points">
              <mxPoint x="580" y="410" />
              <mxPoint x="480" y="410" />
              <mxPoint x="480" y="480" />
            </Array>
          </mxGeometry>
        </mxCell>
        <mxCell id="zBoWYeOD6eB_H1M0TIGS-11" value="min1=b" style="rounded=0;whiteSpace=wrap;html=1;" parent="1" vertex="1">
          <mxGeometry x="520" y="340" width="120" height="60" as="geometry" />
        </mxCell>
        <mxCell id="zBoWYeOD6eB_H1M0TIGS-21" value="" style="edgeStyle=orthogonalEdgeStyle;rounded=0;orthogonalLoop=1;jettySize=auto;html=1;" parent="1" source="zBoWYeOD6eB_H1M0TIGS-19" target="zBoWYeOD6eB_H1M0TIGS-20" edge="1">
          <mxGeometry relative="1" as="geometry" />
        </mxCell>
        <mxCell id="zBoWYeOD6eB_H1M0TIGS-23" value="" style="edgeStyle=orthogonalEdgeStyle;rounded=0;orthogonalLoop=1;jettySize=auto;html=1;" parent="1" source="zBoWYeOD6eB_H1M0TIGS-19" target="zBoWYeOD6eB_H1M0TIGS-22" edge="1">
          <mxGeometry relative="1" as="geometry" />
        </mxCell>
        <mxCell id="zBoWYeOD6eB_H1M0TIGS-19" value="c&amp;gt;d" style="rhombus;whiteSpace=wrap;html=1;" parent="1" vertex="1">
          <mxGeometry x="369" y="460" width="80" height="80" as="geometry" />
        </mxCell>
        <mxCell id="zBoWYeOD6eB_H1M0TIGS-55" style="edgeStyle=orthogonalEdgeStyle;rounded=0;orthogonalLoop=1;jettySize=auto;html=1;entryX=1;entryY=0;entryDx=0;entryDy=0;" parent="1" source="zBoWYeOD6eB_H1M0TIGS-20" target="zBoWYeOD6eB_H1M0TIGS-39" edge="1">
          <mxGeometry relative="1" as="geometry">
            <Array as="points">
              <mxPoint x="560" y="540" />
              <mxPoint x="480" y="540" />
              <mxPoint x="480" y="610" />
            </Array>
          </mxGeometry>
        </mxCell>
        <mxCell id="zBoWYeOD6eB_H1M0TIGS-20" value="min2=d" style="whiteSpace=wrap;html=1;" parent="1" vertex="1">
          <mxGeometry x="520" y="470" width="120" height="60" as="geometry" />
        </mxCell>
        <mxCell id="zBoWYeOD6eB_H1M0TIGS-22" value="min2=c" style="whiteSpace=wrap;html=1;" parent="1" vertex="1">
          <mxGeometry x="150" y="470" width="120" height="60" as="geometry" />
        </mxCell>
        <mxCell id="zBoWYeOD6eB_H1M0TIGS-32" value="yes" style="text;html=1;strokeColor=none;fillColor=none;align=center;verticalAlign=middle;whiteSpace=wrap;rounded=0;" parent="1" vertex="1">
          <mxGeometry x="450" y="320" width="60" height="30" as="geometry" />
        </mxCell>
        <mxCell id="zBoWYeOD6eB_H1M0TIGS-33" value="no" style="text;html=1;strokeColor=none;fillColor=none;align=center;verticalAlign=middle;whiteSpace=wrap;rounded=0;" parent="1" vertex="1">
          <mxGeometry x="290" y="320" width="60" height="30" as="geometry" />
        </mxCell>
        <mxCell id="zBoWYeOD6eB_H1M0TIGS-34" value="yes" style="text;html=1;strokeColor=none;fillColor=none;align=center;verticalAlign=middle;whiteSpace=wrap;rounded=0;" parent="1" vertex="1">
          <mxGeometry x="440" y="460" width="60" height="30" as="geometry" />
        </mxCell>
        <mxCell id="zBoWYeOD6eB_H1M0TIGS-35" value="no" style="text;html=1;strokeColor=none;fillColor=none;align=center;verticalAlign=middle;whiteSpace=wrap;rounded=0;" parent="1" vertex="1">
          <mxGeometry x="300" y="460" width="60" height="30" as="geometry" />
        </mxCell>
        <mxCell id="zBoWYeOD6eB_H1M0TIGS-47" value="" style="edgeStyle=orthogonalEdgeStyle;rounded=0;orthogonalLoop=1;jettySize=auto;html=1;entryX=0.5;entryY=0;entryDx=0;entryDy=0;" parent="1" source="zBoWYeOD6eB_H1M0TIGS-39" target="l2h7cIMeigPIYbN6bK_M-1" edge="1">
          <mxGeometry relative="1" as="geometry">
            <mxPoint x="409" y="710" as="targetPoint" />
          </mxGeometry>
        </mxCell>
        <mxCell id="zBoWYeOD6eB_H1M0TIGS-48" value="" style="edgeStyle=orthogonalEdgeStyle;rounded=0;orthogonalLoop=1;jettySize=auto;html=1;" parent="1" source="zBoWYeOD6eB_H1M0TIGS-39" target="zBoWYeOD6eB_H1M0TIGS-42" edge="1">
          <mxGeometry relative="1" as="geometry" />
        </mxCell>
        <mxCell id="zBoWYeOD6eB_H1M0TIGS-49" value="" style="edgeStyle=orthogonalEdgeStyle;rounded=0;orthogonalLoop=1;jettySize=auto;html=1;" parent="1" source="zBoWYeOD6eB_H1M0TIGS-39" target="zBoWYeOD6eB_H1M0TIGS-43" edge="1">
          <mxGeometry relative="1" as="geometry" />
        </mxCell>
        <mxCell id="zBoWYeOD6eB_H1M0TIGS-39" value="min1&amp;gt;min2" style="rhombus;whiteSpace=wrap;html=1;" parent="1" vertex="1">
          <mxGeometry x="369" y="590" width="80" height="80" as="geometry" />
        </mxCell>
        <mxCell id="zBoWYeOD6eB_H1M0TIGS-42" value="min=min2" style="rounded=0;whiteSpace=wrap;html=1;" parent="1" vertex="1">
          <mxGeometry x="520" y="600" width="120" height="60" as="geometry" />
        </mxCell>
        <mxCell id="zBoWYeOD6eB_H1M0TIGS-43" value="min=min1" style="rounded=0;whiteSpace=wrap;html=1;" parent="1" vertex="1">
          <mxGeometry x="150" y="600" width="120" height="60" as="geometry" />
        </mxCell>
        <mxCell id="zBoWYeOD6eB_H1M0TIGS-50" value="" style="edgeStyle=orthogonalEdgeStyle;rounded=0;orthogonalLoop=1;jettySize=auto;html=1;" parent="1" target="zBoWYeOD6eB_H1M0TIGS-45" edge="1">
          <mxGeometry relative="1" as="geometry">
            <mxPoint x="409" y="770" as="sourcePoint" />
          </mxGeometry>
        </mxCell>
        <mxCell id="zBoWYeOD6eB_H1M0TIGS-45" value="finish" style="ellipse;whiteSpace=wrap;html=1;" parent="1" vertex="1">
          <mxGeometry x="349" y="840" width="120" height="80" as="geometry" />
        </mxCell>
        <mxCell id="zBoWYeOD6eB_H1M0TIGS-52" style="edgeStyle=orthogonalEdgeStyle;rounded=0;orthogonalLoop=1;jettySize=auto;html=1;entryX=0.5;entryY=0;entryDx=0;entryDy=0;" parent="1" source="zBoWYeOD6eB_H1M0TIGS-5" target="zBoWYeOD6eB_H1M0TIGS-9" edge="1">
          <mxGeometry relative="1" as="geometry" />
        </mxCell>
        <mxCell id="zBoWYeOD6eB_H1M0TIGS-56" style="edgeStyle=orthogonalEdgeStyle;rounded=0;orthogonalLoop=1;jettySize=auto;html=1;entryX=0;entryY=0;entryDx=0;entryDy=0;" parent="1" source="zBoWYeOD6eB_H1M0TIGS-22" target="zBoWYeOD6eB_H1M0TIGS-39" edge="1">
          <mxGeometry relative="1" as="geometry">
            <Array as="points">
              <mxPoint x="240" y="540" />
              <mxPoint x="320" y="540" />
              <mxPoint x="320" y="610" />
            </Array>
          </mxGeometry>
        </mxCell>
        <mxCell id="l2h7cIMeigPIYbN6bK_M-1" value="min" style="shape=document;whiteSpace=wrap;html=1;boundedLbl=1;" vertex="1" parent="1">
          <mxGeometry x="349" y="720" width="120" height="80" as="geometry" />
        </mxCell>
      </root>
    </mxGraphModel>
  </diagram>
</mxfile>
